<?xml version="1.0" encoding="UTF-8"?>
<svg version="1.1" xmlns="http://www.w3.org/2000/svg" width="32" height="32">
<path d="M0 0 C0.91007812 0.12375 1.82015625 0.2475 2.7578125 0.375 C2.7578125 1.365 2.7578125 2.355 2.7578125 3.375 C3.4178125 3.705 4.0778125 4.035 4.7578125 4.375 C3.7678125 8.665 2.7778125 12.955 1.7578125 17.375 C2.7478125 17.705 3.7378125 18.035 4.7578125 18.375 C4.7578125 19.365 4.7578125 20.355 4.7578125 21.375 C3.365625 22.0246875 3.365625 22.0246875 1.9453125 22.6875 C-0.77621443 24.12830838 -2.18487641 25.21972171 -4.2421875 27.375 C-5.2321875 27.705 -6.2221875 28.035 -7.2421875 28.375 C-8.45100846 30.37516466 -8.45100846 30.37516466 -9.2421875 32.375 C-11.24173496 32.41754356 -13.24260386 32.41580783 -15.2421875 32.375 C-15.5721875 32.045 -15.9021875 31.715 -16.2421875 31.375 C-17.76146788 31.30320036 -19.28386232 31.29107993 -20.8046875 31.3125 C-22.04412109 31.32603516 -22.04412109 31.32603516 -23.30859375 31.33984375 C-23.94667969 31.35144531 -24.58476562 31.36304687 -25.2421875 31.375 C-25.5721875 30.715 -25.9021875 30.055 -26.2421875 29.375 C-23.6021875 28.055 -20.9621875 26.735 -18.2421875 25.375 C-18.2421875 24.385 -18.2421875 23.395 -18.2421875 22.375 C-19.2321875 22.045 -20.2221875 21.715 -21.2421875 21.375 C-21.2421875 20.715 -21.2421875 20.055 -21.2421875 19.375 C-21.9021875 19.375 -22.5621875 19.375 -23.2421875 19.375 C-27.01522754 13.83334744 -27.78549019 10.03045792 -27.2421875 3.375 C-26.6234375 3.58125 -26.0046875 3.7875 -25.3671875 4 C-24.3153125 4.185625 -24.3153125 4.185625 -23.2421875 4.375 C-22.5821875 3.715 -21.9221875 3.055 -21.2421875 2.375 C-20.15700639 3.28947846 -19.07414012 4.20670407 -17.9921875 5.125 C-17.38890625 5.63546875 -16.785625 6.1459375 -16.1640625 6.671875 C-14.1053232 8.49628625 -12.16976782 10.41330322 -10.2421875 12.375 C-9.80648438 11.50875 -9.37078125 10.6425 -8.921875 9.75 C-8.32632812 8.63625 -7.73078125 7.5225 -7.1171875 6.375 C-6.53710938 5.26125 -5.95703125 4.1475 -5.359375 3 C-3.2421875 0.375 -3.2421875 0.375 0 0 Z " fill="#9F0B0F" transform="translate(27.2421875,-0.375)"/>
<path d="M0 0 C9.37152485 6.82392586 9.37152485 6.82392586 12 10 C12 10.99 12 11.98 12 13 C14.97 13.495 14.97 13.495 18 14 C18 14.99 18 15.98 18 17 C15.69 16.67 13.38 16.34 11 16 C10.773125 16.804375 10.54625 17.60875 10.3125 18.4375 C9.879375 19.283125 9.44625 20.12875 9 21 C6.375 21.8125 6.375 21.8125 4 22 C4 21.34 4 20.68 4 20 C3.01 19.67 2.02 19.34 1 19 C1 18.34 1 17.68 1 17 C0.34 17 -0.32 17 -1 17 C-4.77304004 11.45834744 -5.54330269 7.65545792 -5 1 C-3.68 1.33 -2.36 1.66 -1 2 C-0.67 1.34 -0.34 0.68 0 0 Z " fill="#9A090D" transform="translate(5,2)"/>
<path d="M0 0 C0.86625 0.20625 1.7325 0.4125 2.625 0.625 C2.625 1.615 2.625 2.605 2.625 3.625 C3.285 3.955 3.945 4.285 4.625 4.625 C4.25533201 6.42224763 3.8532752 8.21285578 3.4375 10 C3.21707031 10.99773438 2.99664062 11.99546875 2.76953125 13.0234375 C1.625 15.625 1.625 15.625 -0.98828125 16.9765625 C-1.77589844 17.19054687 -2.56351563 17.40453125 -3.375 17.625 C-3.375 16.635 -3.375 15.645 -3.375 14.625 C-4.303125 14.4703125 -4.303125 14.4703125 -5.25 14.3125 C-7.375 13.625 -7.375 13.625 -9.375 10.625 C-4.43845733 0.82193654 -4.43845733 0.82193654 0 0 Z " fill="#780101" transform="translate(27.375,-0.625)"/>
<path d="M0 0 C1.98 0.99 3.96 1.98 6 3 C6 3.99 6 4.98 6 6 C6.5775 5.79375 7.155 5.5875 7.75 5.375 C10.51967567 4.91338739 11.64561267 5.57055055 14 7 C14 7.99 14 8.98 14 10 C9.73556689 11.68593867 7.41634631 11.92975712 3 11 C1.65863633 11.65035814 0.32467746 12.3162955 -1 13 C-3.25 12.625 -3.25 12.625 -5 12 C-4.01 10.35 -3.02 8.7 -2 7 C0.31 7.33 2.62 7.66 5 8 C5 7.01 5 6.02 5 5 C3.35 4.67 1.7 4.34 0 4 C0 2.68 0 1.36 0 0 Z " fill="#C8161C" transform="translate(18,11)"/>
<path d="M0 0 C-1.875 3.875 -1.875 3.875 -3 5 C-4.51928038 5.07179964 -6.04167482 5.08392007 -7.5625 5.0625 C-8.38878906 5.05347656 -9.21507812 5.04445313 -10.06640625 5.03515625 C-10.70449219 5.02355469 -11.34257812 5.01195312 -12 5 C-12 4.34 -12 3.68 -12 3 C-4.71428571 -1.71428571 -4.71428571 -1.71428571 0 0 Z " fill="#4C0202" transform="translate(26,22)"/>
<path d="M0 0 C4.38691545 0.50618255 6.84391279 3.13082981 10 6 C10 6.33 10 6.66 10 7 C7.03 7 4.06 7 1 7 C0 3 0 3 0 0 Z " fill="#410000" transform="translate(0,3)"/>
<path d="M0 0 C-0.99 0.33 -1.98 0.66 -3 1 C-4.20882096 3.00016466 -4.20882096 3.00016466 -5 5 C-6.32 5 -7.64 5 -9 5 C-9.33 3.68 -9.66 2.36 -10 1 C-6.21812119 -0.83691257 -4.05431692 -1.15837626 0 0 Z " fill="#5D0102" transform="translate(13,14)"/>
<path d="M0 0 C3.63 0.66 7.26 1.32 11 2 C8.8125 4.0625 8.8125 4.0625 6 6 C3.1875 5.75 3.1875 5.75 1 5 C0.67 3.35 0.34 1.7 0 0 Z " fill="#C1151B" transform="translate(0,9)"/>
<path d="M0 0 C0.042721 1.66611905 0.04063832 3.33382885 0 5 C-1 6 -1 6 -4.5625 6.0625 C-5.696875 6.041875 -6.83125 6.02125 -8 6 C-8.33 5.34 -8.66 4.68 -9 4 C-7.68872739 3.3309224 -6.3759455 2.66480194 -5.0625 2 C-4.33160156 1.62875 -3.60070312 1.2575 -2.84765625 0.875 C-1 0 -1 0 0 0 Z " fill="#EA1B23" transform="translate(10,25)"/>
<path d="M0 0 C-1.07401108 2.91517292 -1.77810176 4.77810176 -4 7 C-6.125 6.625 -6.125 6.625 -8 6 C-8 4 -8 4 -6.25 1.875 C-4 0 -4 0 0 0 Z " fill="#E31A21" transform="translate(14,15)"/>
<path d="M0 0 C0.66 0.33 1.32 0.66 2 1 C2.4140625 3.06640625 2.4140625 3.06640625 2.625 5.5625 C2.69976563 6.38878906 2.77453125 7.21507812 2.8515625 8.06640625 C2.90054687 8.70449219 2.94953125 9.34257812 3 10 C1.35 8.35 -0.3 6.7 -2 5 C-1.34 3.35 -0.68 1.7 0 0 Z " fill="#4F0203" transform="translate(24,0)"/>
<path d="M0 0 C-0.66 1.32 -1.32 2.64 -2 4 C-3.98 4 -5.96 4 -8 4 C-7.1875 2.0625 -7.1875 2.0625 -6 0 C-3 -1 -3 -1 0 0 Z " fill="#C4161B" transform="translate(20,28)"/>
<path d="M0 0 C0.66 0 1.32 0 2 0 C3.6875 1.75 3.6875 1.75 5 4 C4.6875 6.25 4.6875 6.25 4 8 C2.35 6.68 0.7 5.36 -1 4 C-0.67 2.68 -0.34 1.36 0 0 Z " fill="#B01217" transform="translate(21,5)"/>
<path d="M0 0 C1.32 0 2.64 0 4 0 C3.67 2.64 3.34 5.28 3 8 C2.34 8 1.68 8 1 8 C0.67 5.36 0.34 2.72 0 0 Z " fill="#E51A21" transform="translate(26,0)"/>
<path d="M0 0 C0.99 0 1.98 0 3 0 C2.67 1.65 2.34 3.3 2 5 C0.35 5.33 -1.3 5.66 -3 6 C-2 4 -1 2 0 0 Z " fill="#7E0202" transform="translate(12,18)"/>
<path d="M0 0 C2.03833424 1.2739589 4.03852126 2.61061923 6 4 C6 4.66 6 5.32 6 6 C3.625 5.6875 3.625 5.6875 1 5 C0.34 4.01 -0.32 3.02 -1 2 C-0.67 1.34 -0.34 0.68 0 0 Z " fill="#5C0102" transform="translate(19,8)"/>
</svg>
